PathFileType	4	(X/Y/Z)	Patient4_TMGait_0pt5_02_left_31.trc.trc
DataRate	CameraRate	NumFrames	NumMarkers	Units	OrigDataRate	OrigDataStartFrame	OrigNumFrames
73.684210526316	73.684210526316	4	33	mm	73.684210526316	124	       141
Frame#	Time	Sacral			L.Shoulder			Chest			R.Shoulder			Neck			R.ASIS			L.ASIS			R.Thigh.Superior			R.Thigh.Lateral			R.Thigh.Inferior			R.Patella			L.Thigh.Superior			L.Thigh.Lateral			L.Thigh.Inferior			L.Patella			L.Shank.Superior			L.Shank.Lateral			L.Shank.Inferior			R.Shank.Superior			R.Shank.Lateral			R.Shank.Inferior			R.Heel			R.Midfoot.Superior			R.Midfoot.Lateral			R.Toe			L.Heel			L.Midfoot.Lateral			L.Midfoot.Superior			L.Toe			L.Elbow			L.Wrist			R.Elbow			R.Wrist			
		X1	Y1	Z1	X2	Y2	Z2	X3	Y3	Z3	X4	Y4	Z4	X5	Y5	Z5	X6	Y6	Z6	X7	Y7	Z7	X8	Y8	Z8	X9	Y9	Z9	X10	Y10	Z10	X11	Y11	Z11	X12	Y12	Z12	X13	Y13	Z13	X14	Y14	Z14	X15	Y15	Z15	X16	Y16	Z16	X17	Y17	Z17	X18	Y18	Z18	X19	Y19	Z19	X20	Y20	Z20	X21	Y21	Z21	X22	Y22	Z22	X23	Y23	Z23	X24	Y24	Z24	X25	Y25	Z25	X26	Y26	Z26	X27	Y27	Z27	X28	Y28	Z28	X29	Y29	Z29	X30	Y30	Z30	X31	Y31	Z31	X32	Y32	Z32	X33	Y33	Z33	

124	41.439285714286	692.201790968614	1007.550307389415	514.802869002362	854.848453467682	1417.228825838788	298.300283480465	979.572080984507	1349.448723191350	443.365464091113	928.523302469982	1435.468852204010	624.465641997629	880.136299754506	1483.148846595361	443.843563021326	924.275824499830	927.329601677707	605.167648584053	884.622780955944	950.213845832211	333.294327478853	919.195015965534	715.296088387900	575.399961881490	817.254477108291	622.322848146626	639.171444560352	872.588293032054	557.119611409319	554.547150407188	851.411746492776	470.225277169676	557.200456586412	956.934117952364	768.199516268499	368.874576463421	904.917502420269	639.058436767617	295.857167984301	1003.016455743173	578.689315272185	362.556831488675	1028.305670806978	514.718071281127	362.652521338497	1015.922819512939	442.516647990336	352.096377067478	957.551191231145	309.678308593184	300.279517768613	1044.922916678305	215.188818323220	362.545592445057	808.891669268329	388.215617447387	564.654969511336	722.891354078258	297.854415078748	627.760733299512	741.229670864744	198.860212930182	561.740555699119	581.824381420298	47.341613146724	533.472679683672	753.877346560731	96.310266247364	568.996982579960	664.448491874085	37.887231684472	608.249670399961	872.751805683719	38.874568443322	599.632944274455	964.967397824340	35.634949177905	397.334522095763	1043.431850090495	42.729625273757	321.906016932239	1110.236412498782	120.095904943743	347.866201312338	1245.902575636144	93.695331436167	330.953627110523	728.644766424059	1074.388053717576	230.434850687980	728.339309545335	814.009416501641	245.476384563353	1059.570744733814	1120.047172160497	729.640715377070	1263.331129898407	1167.422481349241	592.437901995496	
125	41.452857142857	694.279449440706	1005.739373032622	512.706182469943	855.653635074420	1415.576810113063	295.591310763962	980.189702288554	1348.675467713676	441.243492006840	927.880795119055	1434.621875973147	622.049299964473	880.096625698672	1481.898041343131	441.164850464891	926.282287032697	926.617561781989	604.369316102113	887.371412814079	948.131071504012	332.316682406060	919.900251752908	714.022577164914	575.283505079928	816.531969983268	621.646186204098	638.520980416275	871.732386224819	555.831167368470	554.422882910903	849.621264438837	468.652465674941	556.851264837766	959.666201766643	765.703429354081	367.597867199640	905.309473256680	636.445577418161	295.844794146270	1004.394961346016	576.406108057012	361.229695759779	1028.254341775052	511.709308620265	362.073629061010	1015.734018664400	439.420252559626	351.822721230075	955.718754251343	307.051047861863	301.246941368746	1042.554384158824	212.124596538360	363.295471579257	805.974921620342	387.264934283570	564.307366842564	718.785373033184	297.985770486814	627.572307760333	735.896873868091	198.666990539041	561.731411536306	574.999265992902	48.258573602505	533.740276572437	747.357792054772	96.448566474691	569.194232186736	657.699704852329	38.261970700169	608.419025642312	866.045187700850	38.602569188362	599.719913791851	959.675845218970	35.762154584909	399.267108005450	1037.562604095482	40.896862903652	323.027980127590	1106.941170411179	115.595152691761	348.997712580953	1241.547353834712	84.869405435905	330.764052982757	731.306657438218	1072.165167250596	227.223173356707	733.409444941344	811.704894498585	242.236040941855	1060.307215377393	1118.513311044277	724.838741179356	1264.922748632855	1162.662169537274	586.955027877913	
126	41.466428571429	696.397205276610	1004.061832639769	510.490763001292	856.518457307716	1413.978716559809	292.706030501088	980.876816627299	1348.022601807378	438.983840639001	927.274871155503	1433.944983117769	619.479090299672	880.121662201316	1480.768753095337	438.272389065054	928.321324547499	925.995131064267	603.450861497933	890.237113877992	946.301181987261	331.232235135597	920.885921197593	712.854355412646	574.991415396793	816.261960593826	620.984076356803	637.686156540695	871.444833337101	554.596276193942	554.099356619388	848.527389209364	466.936417134045	556.403080599572	962.805402028610	763.765350736048	366.460052958519	906.645285575327	634.433558282665	295.728835434381	1006.573806385977	574.744851496273	360.061882413584	1028.955220578395	509.144316244093	361.615287745037	1016.168805712341	436.643032952371	351.595543927615	954.332094447573	304.966411180021	301.739012305397	1039.959541782449	209.228463171639	363.878037058667	803.539713550873	386.275275669394	563.855579754441	715.023962256005	298.244390227671	627.299135814845	730.788810101976	198.563840685815	561.697965333064	568.189939367015	49.492182614363	534.047087985817	740.958920872910	96.622231242241	569.414289875725	650.971859020408	38.782294499553	608.617193999916	859.365103722269	38.327304290736	599.804419495193	953.380016820251	36.085513727191	400.634712128291	1030.896957734276	39.232120910630	323.770230867479	1102.910924126196	111.205823038681	349.980336222408	1236.469397698059	76.006161430955	330.733885504151	734.512947211452	1069.810599413397	223.740738138774	739.184955079780	809.284665880741	238.567852320689	1060.153896564093	1116.854462748948	720.460093485026	1266.048855210297	1156.560358853805	582.079227579692	
127	41.480000000000	698.494711253377	1002.613537153087	508.177556260716	857.432749118265	1412.507196304342	289.683826717151	981.637268036829	1347.527615352553	436.593968863357	926.791944396523	1433.501545750745	616.766947386269	880.253808946509	1479.826640067236	435.197508352327	930.325928976915	925.513695470901	602.382719213150	893.144062756145	944.828917881607	330.011299773290	922.149208106400	711.858126373158	574.491720952844	816.526801167162	620.354197125799	636.653678043309	871.844081519512	553.459140848357	553.559862982333	848.297371436099	465.089695496071	555.896081622283	966.246898144905	762.479606852859	365.513091315878	908.925930467191	633.117054500399	295.469350410987	1009.437182993374	573.727287444777	359.097828814985	1030.350244412240	507.114761808829	361.299193605766	1017.190588606929	434.296438810042	351.433753032575	953.500636710394	303.490885574842	301.733879287921	1037.293685933288	206.652637400961	364.310001818242	801.716390872625	385.263372302637	563.314389466622	711.708780425098	298.693797908718	626.932742447428	725.995720789967	198.610135414612	561.650413832500	561.447030566709	51.177378620526	534.379602982374	734.742850688429	96.848792588531	569.662800573677	644.292472637394	39.528307612441	608.832843591377	852.710603511430	38.053794311990	599.882138613422	946.540406085955	36.510834675062	401.455729805324	1023.880650903622	37.827001487892	324.162576799783	1098.356505566916	107.239160096476	350.798489852629	1230.948864865378	67.832959716746	330.860756953395	738.262939857583	1067.397322415946	220.044927317229	745.626139914134	806.830772572042	234.504559761452	1059.155296932845	1115.140745159900	716.565711831698	1266.652193217991	1149.114061872252	577.865855857195	
